<svg width="32" height="32" viewBox="0 0 32 32" fill="none" xmlns="http://www.w3.org/2000/svg">
<path d="M30.621 32L18.3898 19.7703C17.4132 20.6023 16.2901 21.2461 15.0204 21.7018C13.7508 22.1575 12.4747 22.3854 11.1921 22.3854C8.06429 22.3854 5.417 21.3027 3.2502 19.1375C1.0834 16.9723 0 14.326 0 11.1985C0 8.07113 1.0821 5.4235 3.24629 3.25566C5.41049 1.08783 8.05648 0.00260869 11.1843 4.68347e-06C14.3121 -0.00259932 16.9607 1.08067 19.1301 3.24981C21.2995 5.41894 22.3842 8.06657 22.3842 11.1927C22.3842 12.5494 22.1439 13.8624 21.6634 15.1319C21.1829 16.4013 20.5514 17.4872 19.7688 18.3895L32 30.6173L30.621 32ZM11.194 20.4304C13.7853 20.4304 15.973 19.5385 17.7569 17.7548C19.5409 15.971 20.4329 13.783 20.4329 11.1907C20.4329 8.59844 19.5409 6.41107 17.7569 4.62863C15.973 2.84618 13.7853 1.95431 11.194 1.95301C8.60274 1.95171 6.41445 2.84358 4.62919 4.62863C2.84392 6.41367 1.95194 8.60104 1.95324 11.1907C1.95455 13.7804 2.84653 15.9678 4.62919 17.7528C6.41185 19.5379 8.59948 20.4297 11.1921 20.4284" fill="black"/>
</svg>
