<svg width="42" height="30" viewBox="0 0 42 30" fill="none" xmlns="http://www.w3.org/2000/svg">
<path fill-rule="evenodd" clip-rule="evenodd" d="M-4 2.78125C-4 2.20938 -3.77282 1.66093 -3.36845 1.25655C-2.96407 0.852175 -2.41562 0.625 -1.84375 0.625H39.8438C40.4156 0.625 40.9641 0.852175 41.3684 1.25655C41.7728 1.66093 42 2.20938 42 2.78125C42 3.35312 41.7728 3.90157 41.3684 4.30595C40.9641 4.71032 40.4156 4.9375 39.8438 4.9375H-1.84375C-2.41562 4.9375 -2.96407 4.71032 -3.36845 4.30595C-3.77282 3.90157 -4 3.35312 -4 2.78125ZM-4 15C-4 14.4281 -3.77282 13.8797 -3.36845 13.4753C-2.96407 13.0709 -2.41562 12.8438 -1.84375 12.8438H39.8438C40.4156 12.8438 40.9641 13.0709 41.3684 13.4753C41.7728 13.8797 42 14.4281 42 15C42 15.5719 41.7728 16.1203 41.3684 16.5247C40.9641 16.9291 40.4156 17.1562 39.8438 17.1562H-1.84375C-2.41562 17.1562 -2.96407 16.9291 -3.36845 16.5247C-3.77282 16.1203 -4 15.5719 -4 15ZM-1.84375 25.0625C-2.41562 25.0625 -2.96407 25.2897 -3.36845 25.6941C-3.77282 26.0984 -4 26.6469 -4 27.2188C-4 27.7906 -3.77282 28.3391 -3.36845 28.7434C-2.96407 29.1478 -2.41562 29.375 -1.84375 29.375H39.8438C40.4156 29.375 40.9641 29.1478 41.3684 28.7434C41.7728 28.3391 42 27.7906 42 27.2188C42 26.6469 41.7728 26.0984 41.3684 25.6941C40.9641 25.2897 40.4156 25.0625 39.8438 25.0625H-1.84375Z" fill="white"/>
</svg>
