<svg width="46" height="46" viewBox="0 0 46 46" fill="none" xmlns="http://www.w3.org/2000/svg">
<path fill-rule="evenodd" clip-rule="evenodd" d="M0 10.7812C0 10.2094 0.227176 9.66093 0.631551 9.25655C1.03593 8.85218 1.58438 8.625 2.15625 8.625H43.8438C44.4156 8.625 44.9641 8.85218 45.3684 9.25655C45.7728 9.66093 46 10.2094 46 10.7812C46 11.3531 45.7728 11.9016 45.3684 12.3059C44.9641 12.7103 44.4156 12.9375 43.8438 12.9375H2.15625C1.58438 12.9375 1.03593 12.7103 0.631551 12.3059C0.227176 11.9016 0 11.3531 0 10.7812ZM0 23C0 22.4281 0.227176 21.8797 0.631551 21.4753C1.03593 21.0709 1.58438 20.8438 2.15625 20.8438H43.8438C44.4156 20.8438 44.9641 21.0709 45.3684 21.4753C45.7728 21.8797 46 22.4281 46 23C46 23.5719 45.7728 24.1203 45.3684 24.5247C44.9641 24.9291 44.4156 25.1562 43.8438 25.1562H2.15625C1.58438 25.1562 1.03593 24.9291 0.631551 24.5247C0.227176 24.1203 0 23.5719 0 23ZM2.15625 33.0625C1.58438 33.0625 1.03593 33.2897 0.631551 33.6941C0.227176 34.0984 0 34.6469 0 35.2188C0 35.7906 0.227176 36.3391 0.631551 36.7434C1.03593 37.1478 1.58438 37.375 2.15625 37.375H43.8438C44.4156 37.375 44.9641 37.1478 45.3684 36.7434C45.7728 36.3391 46 35.7906 46 35.2188C46 34.6469 45.7728 34.0984 45.3684 33.6941C44.9641 33.2897 44.4156 33.0625 43.8438 33.0625H2.15625Z" fill="white"/>
</svg>
