<svg width="36" height="36" viewBox="0 0 36 36" fill="none" xmlns="http://www.w3.org/2000/svg">
<path d="M29.25 6H24.75V3.75C24.75 3.55109 24.671 3.36032 24.5303 3.21967C24.3897 3.07902 24.1989 3 24 3C23.8011 3 23.6103 3.07902 23.4697 3.21967C23.329 3.36032 23.25 3.55109 23.25 3.75V6H12.75V3.75C12.75 3.55109 12.671 3.36032 12.5303 3.21967C12.3897 3.07902 12.1989 3 12 3C11.8011 3 11.6103 3.07902 11.4697 3.21967C11.329 3.36032 11.25 3.55109 11.25 3.75V6H6.75C5.7558 6.00119 4.80267 6.39666 4.09966 7.09966C3.39666 7.80267 3.00119 8.7558 3 9.75V29.25C3.00119 30.2442 3.39666 31.1973 4.09966 31.9003C4.80267 32.6033 5.7558 32.9988 6.75 33H29.25C30.2446 33 31.1984 32.6049 31.9016 31.9016C32.6049 31.1984 33 30.2446 33 29.25V9.75C33 8.75544 32.6049 7.80161 31.9016 7.09835C31.1984 6.39509 30.2446 6 29.25 6ZM31.5 29.25C31.5 29.8467 31.2629 30.419 30.841 30.841C30.419 31.2629 29.8467 31.5 29.25 31.5H6.75C6.15326 31.5 5.58097 31.2629 5.15901 30.841C4.73705 30.419 4.5 29.8467 4.5 29.25V16.5H31.5V29.25ZM31.5 15H4.5V9.75C4.5 8.508 5.505 7.5 6.75 7.5H11.25V9.75C11.25 9.94891 11.329 10.1397 11.4697 10.2803C11.6103 10.421 11.8011 10.5 12 10.5C12.1989 10.5 12.3897 10.421 12.5303 10.2803C12.671 10.1397 12.75 9.94891 12.75 9.75V7.5H23.25V9.75C23.25 9.94891 23.329 10.1397 23.4697 10.2803C23.6103 10.421 23.8011 10.5 24 10.5C24.1989 10.5 24.3897 10.421 24.5303 10.2803C24.671 10.1397 24.75 9.94891 24.75 9.75V7.5H29.25C29.8467 7.5 30.419 7.73705 30.841 8.15901C31.2629 8.58097 31.5 9.15326 31.5 9.75V15Z" fill="black" stroke="black" stroke-width="2"/>
</svg>
