<svg width="72" height="72" viewBox="0 0 72 72" fill="none" xmlns="http://www.w3.org/2000/svg">
<path d="M33.33 12.147C34.1209 12.0595 34.8446 11.6614 35.3419 11.0403C35.8393 10.4191 36.0695 9.62588 35.982 8.83501C35.8945 8.04413 35.4964 7.32042 34.8752 6.82307C34.2541 6.32573 33.4609 6.09549 32.67 6.18301C17.664 7.84201 6 20.556 6 36C6 52.569 19.431 66 36 66C51.438 66 64.149 54.339 65.817 39.345C65.9049 38.5541 65.6751 37.7607 65.178 37.1393C64.6809 36.5179 63.9574 36.1194 63.1665 36.0315C62.3756 35.9436 61.5822 36.1734 60.9608 36.6705C60.3394 37.1676 59.9409 37.8911 59.853 38.682C59.1621 44.7723 56.1674 50.3676 51.4831 54.3205C46.7987 58.2735 40.7796 60.2847 34.6598 59.9417C28.54 59.5987 22.7833 56.9275 18.57 52.4759C14.3567 48.0242 12.0061 42.1294 12 36C11.9995 30.0968 14.1747 24.4005 18.1097 20C22.0447 15.5996 27.4634 12.8037 33.33 12.147ZM44.301 7.17301C43.5428 6.98171 42.7399 7.09401 42.0632 7.486C41.3866 7.87798 40.8898 8.51867 40.6786 9.27157C40.4674 10.0245 40.5585 10.8301 40.9325 11.5168C41.3065 12.2035 41.9339 12.717 42.681 12.948C43.545 13.192 44.387 13.482 45.207 13.818C45.9438 14.1192 46.77 14.1153 47.5039 13.8073C48.2378 13.4992 48.8193 12.9123 49.1205 12.1755C49.4217 11.4387 49.4178 10.6125 49.1098 9.87859C48.8017 9.14466 48.2148 8.56316 47.478 8.26201C46.4402 7.83997 45.3795 7.4764 44.301 7.17301ZM52.047 14.073C52.3135 13.7828 52.6346 13.548 52.9918 13.3819C53.3491 13.2158 53.7356 13.1217 54.1292 13.105C54.5229 13.0883 54.9159 13.1493 55.286 13.2845C55.656 13.4197 55.9958 13.6265 56.286 13.893C56.922 14.475 57.531 15.083 58.113 15.717C58.6509 16.3034 58.9337 17.0794 58.8994 17.8744C58.8651 18.6694 58.5164 19.4181 57.93 19.956C57.3436 20.4939 56.5676 20.7768 55.7726 20.7424C54.9776 20.7081 54.2289 20.3594 53.691 19.773C53.2261 19.2663 52.7397 18.7799 52.233 18.315C51.9424 18.0489 51.7071 17.7282 51.5405 17.3711C51.3739 17.0141 51.2792 16.6277 51.2619 16.234C51.2447 15.8404 51.3051 15.4472 51.4398 15.0769C51.5745 14.7067 51.7808 14.3635 52.047 14.073ZM33 18C33.7956 18 34.5587 18.3161 35.1213 18.8787C35.6839 19.4413 36 20.2044 36 21V36H45C45.7957 36 46.5587 36.3161 47.1213 36.8787C47.6839 37.4413 48 38.2044 48 39C48 39.7957 47.6839 40.5587 47.1213 41.1213C46.5587 41.6839 45.7957 42 45 42H33C32.2044 42 31.4413 41.6839 30.8787 41.1213C30.3161 40.5587 30 39.7957 30 39V21C30 20.2044 30.3161 19.4413 30.8787 18.8787C31.4413 18.3161 32.2044 18 33 18ZM59.82 22.869C60.5564 22.5679 61.3822 22.5717 62.1158 22.8794C62.8494 23.1872 63.4308 23.7737 63.732 24.51C64.1565 25.5516 64.5221 26.6163 64.827 27.699C64.9453 28.0818 64.9858 28.4843 64.946 28.883C64.9062 29.2816 64.787 29.6682 64.5954 30.02C64.4038 30.3719 64.1436 30.6817 63.8303 30.9314C63.517 31.181 63.1568 31.3654 62.7711 31.4736C62.3854 31.5818 61.9819 31.6116 61.5844 31.5614C61.187 31.5111 60.8036 31.3818 60.457 31.1809C60.1104 30.9801 59.8074 30.7119 59.5661 30.3921C59.3248 30.0723 59.15 29.7075 59.052 29.319C58.8086 28.4574 58.5171 27.6101 58.179 26.781C57.8778 26.045 57.8811 25.2195 58.1882 24.4859C58.4954 23.7524 59.0812 23.1708 59.817 22.869" fill="#8F108D"/>
</svg>
