<svg width="72" height="72" viewBox="0 0 72 72" fill="none" xmlns="http://www.w3.org/2000/svg">
<path d="M12 42H19.185C20.067 42 20.937 42.198 21.726 42.582L27.852 45.546C28.641 45.927 29.511 46.125 30.396 46.125H33.522C36.546 46.125 39 48.498 39 51.426C39 51.546 38.919 51.648 38.802 51.681L31.179 53.79C29.8112 54.1679 28.3526 54.0357 27.075 53.418L20.526 50.25M24 23.517C24 17.241 29.688 11.037 33.678 7.458C34.7288 6.51726 36.0896 5.9971 37.5 5.9971C38.9104 5.9971 40.2712 6.51726 41.322 7.458C45.312 11.04 51 17.238 51 23.52C51 29.67 45.888 36 37.5 36C29.112 36 24 29.67 24 23.517Z" stroke="#8F108D" stroke-width="3" stroke-linecap="round" stroke-linejoin="round"/>
<path d="M39 49.5L52.779 45.267C53.9786 44.8989 55.2638 44.9192 56.4511 45.3248C57.6385 45.7305 58.6674 46.5009 59.391 47.526C60.498 49.056 60.048 51.252 58.434 52.182L35.889 65.193C35.184 65.6009 34.4034 65.861 33.5947 65.9574C32.786 66.0539 31.9661 65.9847 31.185 65.754L12 60.06" stroke="#8F108D" stroke-width="3" stroke-linecap="round" stroke-linejoin="round"/>
</svg>
