<svg width="72" height="72" viewBox="0 0 72 72" fill="none" xmlns="http://www.w3.org/2000/svg">
<path d="M26.4001 33.6C23.2175 33.6 20.1653 32.3357 17.9148 30.0853C15.6644 27.8348 14.4001 24.7826 14.4001 21.6V12C14.4001 11.3635 14.653 10.753 15.103 10.3029C15.5531 9.85286 16.1636 9.6 16.8001 9.6H19.2001C19.8366 9.6 20.4471 9.34715 20.8972 8.89706C21.3472 8.44697 21.6001 7.83652 21.6001 7.2C21.6001 6.56348 21.3472 5.95303 20.8972 5.50295C20.4471 5.05286 19.8366 4.8 19.2001 4.8H16.8001C14.8905 4.8 13.0592 5.55857 11.7089 6.90883C10.3587 8.2591 9.6001 10.0904 9.6001 12V21.6C9.60318 24.3114 10.2644 26.9815 11.5268 29.381C12.7893 31.7805 14.6153 33.8377 16.8481 35.376C18.9954 37.2655 20.7366 39.5714 21.966 42.154C23.1954 44.7366 23.8874 47.542 24.0001 50.4C24.0001 54.8556 25.7701 59.1288 28.9207 62.2794C32.0713 65.43 36.3445 67.2 40.8001 67.2C45.2557 67.2 49.5289 65.43 52.6795 62.2794C55.8301 59.1288 57.6001 54.8556 57.6001 50.4V47.664C59.8625 47.0799 61.8342 45.6907 63.1455 43.7568C64.4569 41.8229 65.018 39.4772 64.7236 37.1592C64.4292 34.8412 63.2995 32.7102 61.5463 31.1656C59.793 29.621 57.5367 28.7688 55.2001 28.7688C52.8635 28.7688 50.6072 29.621 48.8539 31.1656C47.1007 32.7102 45.971 34.8412 45.6766 37.1592C45.3822 39.4772 45.9433 41.8229 47.2547 43.7568C48.566 45.6907 50.5377 47.0799 52.8001 47.664V50.4C52.8001 53.5826 51.5358 56.6348 49.2854 58.8853C47.0349 61.1357 43.9827 62.4 40.8001 62.4C37.6175 62.4 34.5653 61.1357 32.3148 58.8853C30.0644 56.6348 28.8001 53.5826 28.8001 50.4C28.9188 47.5384 29.6183 44.7309 30.8561 42.1481C32.0938 39.5653 33.844 37.2612 36.0001 35.376C38.224 33.8324 40.0407 31.7728 41.2946 29.3736C42.5486 26.9745 43.2024 24.3071 43.2001 21.6V12C43.2001 10.0904 42.4415 8.2591 41.0913 6.90883C39.741 5.55857 37.9097 4.8 36.0001 4.8H33.6001C32.9636 4.8 32.3531 5.05286 31.903 5.50295C31.453 5.95303 31.2001 6.56348 31.2001 7.2C31.2001 7.83652 31.453 8.44697 31.903 8.89706C32.3531 9.34715 32.9636 9.6 33.6001 9.6H36.0001C36.6366 9.6 37.2471 9.85286 37.6972 10.3029C38.1472 10.753 38.4001 11.3635 38.4001 12V21.6C38.4001 23.1759 38.0897 24.7363 37.4867 26.1922C36.8836 27.6481 35.9997 28.971 34.8854 30.0853C33.7711 31.1996 32.4482 32.0835 30.9923 32.6866C29.5364 33.2896 27.976 33.6 26.4001 33.6ZM55.2001 43.2C53.9271 43.2 52.7062 42.6943 51.806 41.7941C50.9058 40.8939 50.4001 39.673 50.4001 38.4C50.4001 37.127 50.9058 35.9061 51.806 35.0059C52.7062 34.1057 53.9271 33.6 55.2001 33.6C56.4731 33.6 57.694 34.1057 58.5942 35.0059C59.4944 35.9061 60.0001 37.127 60.0001 38.4C60.0001 39.673 59.4944 40.8939 58.5942 41.7941C57.694 42.6943 56.4731 43.2 55.2001 43.2Z" fill="#8F108D"/>
</svg>
