<svg width="33" height="33" viewBox="0 0 33 33" fill="none" xmlns="http://www.w3.org/2000/svg">
<path d="M5.34039 26.6337C4.60842 26.6314 3.98285 26.369 3.46369 25.8465C2.94452 25.3241 2.68564 24.6965 2.68706 23.9636L2.73724 7.99342C2.73954 7.26146 3.00236 6.63589 3.52569 6.11672C4.04901 5.59756 4.67622 5.33868 5.4073 5.34009L26.7009 5.407C27.4328 5.4093 28.0588 5.67212 28.5789 6.19545C29.099 6.71878 29.3574 7.34599 29.3542 8.07706L29.304 24.0472C29.3017 24.7792 29.0393 25.4052 28.5169 25.9253C27.9945 26.4453 27.3668 26.7038 26.634 26.7006L5.34039 26.6337ZM16.0164 17.3512L5.39057 10.6635L5.34875 23.972L26.6423 24.0389L26.6841 10.7304L16.0164 17.3512ZM16.0248 14.6895L26.6925 8.0687L5.39894 8.00179L16.0248 14.6895ZM5.39057 10.6635L5.39894 8.00179L5.34875 23.972L5.39057 10.6635Z" fill="black"/>
</svg>
