<svg width="36" height="36" viewBox="0 0 36 36" fill="none" xmlns="http://www.w3.org/2000/svg">
<path d="M22.5001 27V28.125C22.5001 29.3185 22.026 30.4631 21.1821 31.307C20.3382 32.1509 19.1936 32.625 18.0001 32.625C16.8066 32.625 15.662 32.1509 14.8181 31.307C13.9742 30.4631 13.5001 29.3185 13.5001 28.125V27M30.0714 24.7099C28.2657 22.5 26.991 21.375 26.991 15.2824C26.991 9.70313 24.1419 7.71539 21.797 6.75C21.4855 6.62203 21.1923 6.32812 21.0974 6.0082C20.686 4.60828 19.5329 3.375 18.0001 3.375C16.4673 3.375 15.3135 4.60898 14.9064 6.00961C14.8114 6.33305 14.5182 6.62203 14.2067 6.75C11.859 7.7168 9.01276 9.6975 9.01276 15.2824C9.00924 21.375 7.73448 22.5 5.92885 24.7099C5.18073 25.6254 5.83604 27 7.14456 27H28.8627C30.1642 27 30.8153 25.6212 30.0714 24.7099Z" stroke="black" stroke-width="3" stroke-linecap="round" stroke-linejoin="round"/>
</svg>
