<svg width="4" height="20" viewBox="0 0 4 20" fill="none" xmlns="http://www.w3.org/2000/svg">
<path d="M0 2C0 1.72 -2.06754e-07 1.582 0.0159998 1.466C0.0669085 1.09942 0.236058 0.75946 0.497759 0.497759C0.75946 0.236058 1.09942 0.0669085 1.466 0.0159998C1.58 -2.06754e-07 1.72 0 2 0C2.28 0 2.418 -2.06754e-07 2.534 0.0159998C2.90058 0.0669085 3.24054 0.236058 3.50224 0.497759C3.76394 0.75946 3.93309 1.09942 3.984 1.466C4 1.58 4 1.72 4 2C4 2.28 4 2.418 3.984 2.534C3.93309 2.90058 3.76394 3.24054 3.50224 3.50224C3.24054 3.76394 2.90058 3.93309 2.534 3.984C2.42 4 2.28 4 2 4C1.72 4 1.582 4 1.466 3.984C1.09942 3.93309 0.75946 3.76394 0.497759 3.50224C0.236058 3.24054 0.0669085 2.90058 0.0159998 2.534C-2.06754e-07 2.42 0 2.28 0 2ZM0 10C0 9.72 -2.06754e-07 9.582 0.0159998 9.466C0.0669085 9.09942 0.236058 8.75946 0.497759 8.49776C0.75946 8.23606 1.09942 8.06691 1.466 8.016C1.58 8 1.72 8 2 8C2.28 8 2.418 8 2.534 8.016C2.90058 8.06691 3.24054 8.23606 3.50224 8.49776C3.76394 8.75946 3.93309 9.09942 3.984 9.466C4 9.58 4 9.72 4 10C4 10.28 4 10.418 3.984 10.534C3.93309 10.9006 3.76394 11.2405 3.50224 11.5022C3.24054 11.7639 2.90058 11.9331 2.534 11.984C2.42 12 2.28 12 2 12C1.72 12 1.582 12 1.466 11.984C1.09942 11.9331 0.75946 11.7639 0.497759 11.5022C0.236058 11.2405 0.0669085 10.9006 0.0159998 10.534C-2.06754e-07 10.42 0 10.28 0 10ZM0 18C0 17.722 -2.06754e-07 17.582 0.0159998 17.466C0.0672065 17.1001 0.236241 16.7608 0.497514 16.4995C0.758786 16.2382 1.09807 16.0692 1.464 16.018C1.582 16.002 1.72 16.002 1.998 16.002C2.276 16.002 2.418 16.002 2.532 16.018C2.89793 16.0692 3.23721 16.2382 3.49849 16.4995C3.75976 16.7608 3.92879 17.1001 3.98 17.466C3.996 17.582 3.996 17.722 3.996 18C3.996 18.278 3.996 18.418 3.98 18.534C3.92879 18.8999 3.75976 19.2392 3.49849 19.5005C3.23721 19.7618 2.89793 19.9308 2.532 19.982C2.416 19.998 2.276 19.998 1.998 19.998C1.72 19.998 1.58 19.998 1.464 19.982C1.09807 19.9308 0.758786 19.7618 0.497514 19.5005C0.236241 19.2392 0.0672065 18.8999 0.0159998 18.534C-2.06754e-07 18.418 0 18.278 0 18Z" fill="black"/>
</svg>
