<svg width="72" height="72" viewBox="0 0 72 72" fill="none" xmlns="http://www.w3.org/2000/svg">
<path fill-rule="evenodd" clip-rule="evenodd" d="M18.3544 17.4212C18.2264 17.4213 18.1005 17.4545 17.9891 17.5175C17.8776 17.5805 17.7843 17.6713 17.7183 17.7809L11.6898 27.8254H60.2948L54.2694 17.7809C54.2033 17.6713 54.11 17.5805 53.9986 17.5175C53.8871 17.4545 53.7613 17.4213 53.6332 17.4212H18.3544ZM10.3789 32.2843H11.4758V55.3219C11.4758 58.1935 13.8063 60.524 16.6778 60.524H18.1641C19.5438 60.524 20.867 59.9759 21.8426 59.0003C22.8181 58.0248 23.3662 56.7016 23.3662 55.3219V41.2021H29.3114V55.3219C29.3114 58.1935 31.6419 60.524 34.5135 60.524H55.3217C56.7013 60.524 58.0245 59.9759 59.0001 59.0003C59.9757 58.0248 60.5237 56.7016 60.5237 55.3219V32.2843H61.6087C62.2663 32.2843 62.912 32.1098 63.4801 31.7787C64.0482 31.4476 64.5182 30.9717 64.8422 30.3995C65.1662 29.8274 65.3326 29.1795 65.3244 28.522C65.3161 27.8645 65.1336 27.221 64.7954 26.6571L58.0921 15.4891C57.6302 14.7188 56.9768 14.0813 56.1954 13.6385C55.4141 13.1957 54.5313 12.9628 53.6332 12.9623H18.3544C17.4563 12.9628 16.5736 13.1957 15.7922 13.6385C15.0108 14.0813 14.3574 14.7188 13.8955 15.4891L7.1893 26.6571C5.703 29.1333 7.48953 32.2843 10.3789 32.2843ZM15.9347 55.3219V32.2843H56.0648V55.3219C56.0648 55.519 55.9865 55.708 55.8472 55.8474C55.7078 55.9868 55.5188 56.0651 55.3217 56.0651H34.5135C34.3164 56.0651 34.1273 55.9868 33.988 55.8474C33.8486 55.708 33.7703 55.519 33.7703 55.3219V39.5671C33.7703 38.8182 33.4728 38.0999 32.9432 37.5703C32.4136 37.0407 31.6953 36.7432 30.9463 36.7432H21.7313C20.9823 36.7432 20.264 37.0407 19.7344 37.5703C19.2048 38.0999 18.9073 38.8182 18.9073 39.5671V55.3219C18.9073 55.519 18.829 55.708 18.6896 55.8474C18.5503 55.9868 18.3612 56.0651 18.1641 56.0651H16.6778C16.4807 56.0651 16.2917 55.9868 16.1524 55.8474C16.013 55.708 15.9347 55.519 15.9347 55.3219ZM39.7155 47.1473V40.4589H50.1196V47.1473H39.7155ZM38.7256 36C36.8083 36 35.2566 37.5517 35.2566 39.469V48.1371C35.2566 50.0545 36.8083 51.6062 38.7256 51.6062H51.1095C53.0268 51.6062 54.5785 50.0545 54.5785 48.1371V39.469C54.5785 37.5517 53.0268 36 51.1095 36H38.7256Z" fill="#8F108D"/>
</svg>
