<svg width="80" height="80" viewBox="0 0 80 80" fill="none" xmlns="http://www.w3.org/2000/svg">
<path d="M40.0002 43.3333C38.9853 43.3215 37.9912 43.6208 37.1516 44.191C36.3121 44.7612 35.6673 45.575 35.3042 46.5227C34.9411 47.4704 34.877 48.5066 35.1207 49.4919C35.3643 50.4771 35.9039 51.364 36.6668 52.0333V56.6667C36.6668 57.5507 37.018 58.3986 37.6431 59.0237C38.2683 59.6488 39.1161 60 40.0002 60C40.8842 60 41.7321 59.6488 42.3572 59.0237C42.9823 58.3986 43.3335 57.5507 43.3335 56.6667V52.0333C44.0964 51.364 44.636 50.4771 44.8797 49.4919C45.1233 48.5066 45.0592 47.4704 44.6961 46.5227C44.333 45.575 43.6883 44.7612 42.8487 44.191C42.0091 43.6208 41.015 43.3215 40.0002 43.3333ZM56.6668 30V23.3333C56.6668 18.913 54.9109 14.6738 51.7853 11.5482C48.6597 8.4226 44.4204 6.66666 40.0002 6.66666C35.5799 6.66666 31.3407 8.4226 28.215 11.5482C25.0894 14.6738 23.3335 18.913 23.3335 23.3333V30C20.6813 30 18.1378 31.0536 16.2624 32.9289C14.3871 34.8043 13.3335 37.3478 13.3335 40V63.3333C13.3335 65.9855 14.3871 68.529 16.2624 70.4044C18.1378 72.2798 20.6813 73.3333 23.3335 73.3333H56.6668C59.319 73.3333 61.8625 72.2798 63.7379 70.4044C65.6133 68.529 66.6668 65.9855 66.6668 63.3333V40C66.6668 37.3478 65.6133 34.8043 63.7379 32.9289C61.8625 31.0536 59.319 30 56.6668 30ZM30.0002 23.3333C30.0002 20.6812 31.0537 18.1376 32.9291 16.2623C34.8045 14.3869 37.348 13.3333 40.0002 13.3333C42.6523 13.3333 45.1959 14.3869 47.0712 16.2623C48.9466 18.1376 50.0002 20.6812 50.0002 23.3333V30H30.0002V23.3333ZM60.0002 63.3333C60.0002 64.2174 59.649 65.0652 59.0239 65.6903C58.3987 66.3155 57.5509 66.6667 56.6668 66.6667H23.3335C22.4494 66.6667 21.6016 66.3155 20.9765 65.6903C20.3514 65.0652 20.0002 64.2174 20.0002 63.3333V40C20.0002 39.1159 20.3514 38.2681 20.9765 37.643C21.6016 37.0178 22.4494 36.6667 23.3335 36.6667H56.6668C57.5509 36.6667 58.3987 37.0178 59.0239 37.643C59.649 38.2681 60.0002 39.1159 60.0002 40V63.3333Z" fill="black"/>
</svg>
