<svg width="36" height="36" viewBox="0 0 36 36" fill="none" xmlns="http://www.w3.org/2000/svg">
<path d="M23.5652 19.0649C25.0358 17.9079 26.1092 16.3213 26.6361 14.5259C27.163 12.7304 27.1171 10.8153 26.5049 9.04714C25.8927 7.27895 24.7446 5.74553 23.2203 4.66023C21.6961 3.57492 19.8714 2.9917 18.0002 2.9917C16.1291 2.9917 14.3044 3.57492 12.7801 4.66023C11.2559 5.74553 10.1078 7.27895 9.49556 9.04714C8.88336 10.8153 8.83751 12.7304 9.36438 14.5259C9.89125 16.3213 10.9647 17.9079 12.4352 19.0649C9.91536 20.0745 7.71667 21.749 6.07358 23.9098C4.43049 26.0707 3.40458 28.6369 3.10524 31.3349C3.08357 31.5319 3.10091 31.7312 3.15628 31.9215C3.21164 32.1118 3.30394 32.2893 3.42791 32.4439C3.67827 32.7562 4.04241 32.9562 4.44024 32.9999C4.83806 33.0437 5.23698 32.9276 5.54923 32.6773C5.86147 32.4269 6.06148 32.0628 6.10524 31.6649C6.43462 28.7327 7.83277 26.0247 10.0326 24.0581C12.2324 22.0916 15.0796 21.0045 18.0302 21.0045C20.9809 21.0045 23.8281 22.0916 26.0279 24.0581C28.2277 26.0247 29.6259 28.7327 29.9552 31.6649C29.996 32.0335 30.1719 32.3739 30.4489 32.6205C30.7259 32.867 31.0844 33.0022 31.4552 32.9999H31.6202C32.0134 32.9547 32.3728 32.7559 32.6201 32.4468C32.8673 32.1378 32.9824 31.7435 32.9402 31.3499C32.6395 28.6443 31.608 26.0714 29.9565 23.9072C28.305 21.7431 26.0956 20.0692 23.5652 19.0649ZM18.0002 17.9999C16.8136 17.9999 15.6535 17.648 14.6668 16.9888C13.6801 16.3295 12.9111 15.3924 12.457 14.296C12.0028 13.1997 11.884 11.9933 12.1155 10.8294C12.347 9.66552 12.9185 8.59642 13.7576 7.7573C14.5967 6.91819 15.6658 6.34674 16.8297 6.11523C17.9936 5.88372 19.2 6.00254 20.2963 6.45667C21.3927 6.91079 22.3298 7.67983 22.9891 8.66652C23.6483 9.65322 24.0002 10.8133 24.0002 11.9999C24.0002 13.5912 23.3681 15.1174 22.2429 16.2426C21.1177 17.3678 19.5915 17.9999 18.0002 17.9999Z" fill="black"/>
</svg>
