<svg width="28" height="28" viewBox="0 0 28 28" fill="none" xmlns="http://www.w3.org/2000/svg">
<path d="M18.6668 11.6667C18.6668 14.245 16.5785 16.3333 14.0002 16.3333C11.4218 16.3333 9.3335 14.245 9.3335 11.6667C9.3335 9.08833 11.4218 7 14.0002 7C16.5785 7 18.6668 9.08833 18.6668 11.6667Z" fill="white"/>
<path fill-rule="evenodd" clip-rule="evenodd" d="M14 28C21.735 28 28 21.735 28 14C28 6.265 21.735 0 14 0C6.265 0 0 6.265 0 14C0 21.735 6.265 28 14 28ZM21.315 24.5467C24.6517 22.225 26.8333 18.375 26.8333 14C26.8333 6.90667 21.0933 1.16667 14 1.16667C6.90667 1.16667 1.16667 6.90667 1.16667 14C1.16667 18.375 3.34833 22.225 6.685 24.5467C7.5075 23.0067 10.1617 18.6667 14 18.6667C17.8383 18.6667 20.4867 23.0067 21.315 24.5467Z" fill="white"/>
</svg>
