<?xml version="1.0" standalone="no"?>
<!DOCTYPE svg PUBLIC "-//W3C//DTD SVG 20010904//EN"
 "http://www.w3.org/TR/2001/REC-SVG-20010904/DTD/svg10.dtd">
<svg version="1.0" xmlns="http://www.w3.org/2000/svg"
 width="1280.000000pt" height="810.000000pt" viewBox="0 0 1280.000000 810.000000"
 preserveAspectRatio="xMidYMid meet">
<metadata>
Created by potrace 1.15, written by Peter Selinger 2001-2017
</metadata>
<g transform="translate(0.000000,810.000000) scale(0.100000,-0.100000)"
fill="#000000" stroke="none">
<path d="M1810 8094 c-197 -25 -282 -55 -550 -190 -113 -57 -232 -110 -265
-119 -44 -13 -134 -19 -345 -25 -313 -9 -404 -21 -504 -68 -34 -16 -80 -45
-103 -64 l-42 -36 77 -31 c42 -17 151 -58 242 -91 304 -113 474 -206 599 -329
144 -142 239 -334 283 -576 23 -122 15 -465 -15 -725 -63 -541 -62 -758 8
-1088 180 -859 869 -1643 1795 -2045 246 -107 539 -195 773 -233 l107 -17 -89
-23 c-49 -12 -150 -43 -223 -68 -243 -83 -332 -85 -550 -12 -73 25 -162 50
-197 56 -139 25 -220 -19 -256 -139 -7 -23 -7 -23 31 5 33 26 45 29 108 28 60
0 87 -7 176 -44 58 -24 125 -48 149 -55 75 -19 60 -31 -46 -39 -238 -16 -469
-65 -598 -126 -130 -61 -192 -128 -211 -225 l-7 -40 37 33 c116 101 391 174
1134 297 123 20 226 34 230 31 13 -14 -43 -101 -150 -232 -135 -165 -169 -213
-193 -276 -27 -73 -17 -124 36 -171 23 -20 44 -36 46 -34 2 3 -1 16 -7 31 -33
87 -2 137 168 270 40 32 101 92 135 134 104 129 187 211 241 237 65 31 143 42
386 55 253 13 413 51 463 109 54 64 92 74 159 40 l41 -21 -6 30 c-6 31 -6 31
46 36 107 11 225 13 315 7 l93 -6 -58 -82 c-95 -133 -215 -271 -474 -548 -134
-143 -290 -312 -346 -375 -146 -165 -266 -264 -363 -301 -71 -27 -178 -24
-340 8 -176 34 -308 37 -365 6 -48 -25 -86 -65 -110 -113 l-17 -35 28 26 c35
32 86 59 111 59 21 0 64 -21 139 -69 28 -18 73 -36 100 -40 l49 -8 -37 -17
c-70 -30 -150 -46 -352 -66 -275 -28 -348 -46 -440 -109 -42 -29 -81 -91 -101
-159 -6 -21 -2 -20 42 14 99 76 110 78 378 79 l240 2 155 41 c85 22 259 74
385 115 l230 75 3 -25 c5 -38 -35 -159 -82 -248 -24 -44 -85 -150 -138 -237
-62 -102 -104 -184 -122 -238 -15 -45 -25 -84 -23 -87 6 -5 191 215 266 316
31 42 102 144 158 226 56 83 127 176 157 207 104 106 243 162 489 198 163 23
215 44 306 124 35 30 73 58 83 62 40 12 87 -7 143 -58 48 -44 55 -48 51 -27
-3 13 -8 41 -11 62 -3 21 -19 53 -36 72 -75 85 -204 86 -527 6 -231 -58 -319
-72 -309 -50 14 35 48 119 68 172 31 82 140 242 257 377 175 202 452 462 642
602 100 73 162 107 305 166 603 249 1033 502 1436 847 139 118 242 178 379
218 126 38 215 53 530 92 369 45 423 55 615 122 255 88 352 114 445 120 55 3
205 -6 425 -26 187 -17 455 -40 595 -51 480 -38 529 -43 1225 -124 572 -67
1030 -93 1157 -67 64 14 121 47 126 75 6 29 -37 65 -97 82 -98 29 -95 26 -38
38 36 8 67 40 67 69 0 12 -11 38 -24 57 -23 35 -23 36 -6 58 24 29 43 123 35
165 -17 82 -94 150 -215 189 -57 18 -102 22 -355 28 -180 5 -360 16 -475 29
-102 12 -396 46 -655 76 -821 95 -1280 133 -1630 136 l-130 1 80 20 c44 10
208 42 365 69 157 28 313 56 348 62 39 7 62 16 62 24 0 22 -81 96 -140 130
-73 41 -202 86 -325 111 -97 20 -506 85 -865 137 -318 46 -540 94 -725 157
-49 17 -196 81 -325 143 -398 191 -580 263 -1175 460 -318 105 -424 150 -836
350 -529 257 -607 288 -1079 425 -742 215 -873 284 -1280 675 -241 232 -351
324 -505 427 -209 139 -423 232 -643 278 -95 20 -342 34 -422 24z"/>
</g>
</svg>
